<svg xmlns="http://www.w3.org/2000/svg" viewBox="0 0 387 486.12"><defs><style>.cls-1{fill:#c5dacd;}</style></defs><g id="Layer_2" data-name="Layer 2"><g id="Layer_1-2" data-name="Layer 1"><path class="cls-1" d="M377.84,146.7h0L322.38,39.79a63.5,63.5,0,0,0-5.51-10.61L316.8,29h0A63.51,63.51,0,0,0,263.41,0H63.59A63.59,63.59,0,0,0,0,63.59V356.53a63.44,63.44,0,0,0,23.88,49.65L65.53,448.5h0c22.45,20.69,32.18,37.62,58,37.62H323.41A63.59,63.59,0,0,0,387,422.53V179.59A63.31,63.31,0,0,0,377.84,146.7ZM26,63.59A37.63,37.63,0,0,1,63.59,26H263.41A37.67,37.67,0,0,1,301,63.59V356.53a37.63,37.63,0,0,1-37.59,37.59H63.59a37.7,37.7,0,0,1-9.74-1.28L47,390.19l-.25-.07A37.58,37.58,0,0,1,26,356.53ZM361,422.53a37.63,37.63,0,0,1-37.59,37.59H123.59c-8.72,0-12.29-2.82-26.6-17.26-3.95-4-8.42-8.49-13.56-13.24l-9.35-9.5H85.3l.7.61v-.61H263.41A63.59,63.59,0,0,0,327,356.53V105.16L351.84,153V154l3.76,6.21a37.5,37.5,0,0,1,5.4,19.42Z"/></g></g></svg>